HIERARCHY
ROOT hip
{
  OFFSET 0 0 0
  CHANNELS 6 Xposition Yposition Zposition Zrotation Yrotation Xrotation
  JOINT abdomen
  {
    OFFSET 0 20.6881 -0.73152
    CHANNELS 3 Zrotation Xrotation Yrotation
    JOINT chest
    {
      OFFSET 0 11.7043 -0.48768
      CHANNELS 3 Zrotation Xrotation Yrotation
      JOINT neck
      {
        OFFSET 0 22.1894 -2.19456
        CHANNELS 3 Zrotation Xrotation Yrotation
        JOINT head
        {
          OFFSET -0.24384 7.07133 1.2192
          CHANNELS 3 Zrotation Xrotation Yrotation
          JOINT leftEye
          {
            OFFSET 4.14528 8.04674 8.04672
            CHANNELS 3 Zrotation Xrotation Yrotation
            End Site
            {
              OFFSET 1 0 0
            }
          }
          JOINT rightEye
          {
            OFFSET -3.6576 8.04674 8.04672
            CHANNELS 3 Zrotation Xrotation Yrotation
            End Site
            {
              OFFSET 1 0 0
            }
          }
        }
      }
      JOINT rCollar
      {
        OFFSET -2.68224 19.2634 -4.8768
        CHANNELS 3 Zrotation Xrotation Yrotation
        JOINT rShldr
        {
          OFFSET -8.77824 -1.95073 1.46304
          CHANNELS 3 Zrotation Xrotation Yrotation
          JOINT rForeArm
          {
            OFFSET -28.1742 -1.7115 0.48768
            CHANNELS 3 Zrotation Xrotation Yrotation
            JOINT rHand
            {
              OFFSET -22.5879 0.773209 7.07136
              CHANNELS 3 Zrotation Xrotation Yrotation
              JOINT rThumb1
              {
                OFFSET -1.2192 -0.487915 3.41376
                CHANNELS 3 Zrotation Xrotation Yrotation
                JOINT rThumb2
                {
                  OFFSET -3.37035 -0.52449 3.41376
                  CHANNELS 3 Zrotation Xrotation Yrotation
                  End Site
                  {
                    OFFSET -1.78271 -1.18214 1.43049
                  }
                }
              }
              JOINT rIndex1
              {
                OFFSET -7.75947 0.938293 5.60832
                CHANNELS 3 Zrotation Xrotation Yrotation
                JOINT rIndex2
                {
                  OFFSET -2.54057 -0.884171 1.56538
                  CHANNELS 3 Zrotation Xrotation Yrotation
                  End Site
                  {
                    OFFSET -1.62519 -0.234802 1.16502
                  }
                }
              }
              JOINT rMid1
              {
                OFFSET -8.24714 1.18213 3.41376
                CHANNELS 3 Zrotation Xrotation Yrotation
                JOINT rMid2
                {
                  OFFSET -3.10165 -0.590103 1.0647
                  CHANNELS 3 Zrotation Xrotation Yrotation
                  End Site
                  {
                    OFFSET -2.48547 -0.328903 0.83742
                  }
                }
              }
              JOINT rRing1
              {
                OFFSET -8.82822 0.546677 1.51678
                CHANNELS 3 Zrotation Xrotation Yrotation
                JOINT rRing2
                {
                  OFFSET -2.60934 -0.819778 -0.0198488
                  CHANNELS 3 Zrotation Xrotation Yrotation
                  End Site
                  {
                    OFFSET -2.33842 -0.294052 0.168128
                  }
                }
              }
              JOINT rPinky1
              {
                OFFSET -8.27202 -0.0477905 -0.4584
                CHANNELS 3 Zrotation Xrotation Yrotation
                JOINT rPinky2
                {
                  OFFSET -1.82734 -0.647385 -0.700984
                  CHANNELS 3 Zrotation Xrotation Yrotation
                  End Site
                  {
                    OFFSET -1.69225 -0.51767 -0.607171
                  }
                }
              }
            }
          }
        }
      }
      JOINT lCollar
      {
        OFFSET 2.68224 19.2634 -4.8768
        CHANNELS 3 Zrotation Xrotation Yrotation
        JOINT lShldr
        {
          OFFSET 8.77824 -1.95073 1.46304
          CHANNELS 3 Zrotation Xrotation Yrotation
          JOINT lForeArm
          {
            OFFSET 28.1742 -1.7115 0.48768
            CHANNELS 3 Zrotation Xrotation Yrotation
            JOINT lHand
            {
              OFFSET 22.5879 0.773209 7.07136
              CHANNELS 3 Zrotation Xrotation Yrotation
              JOINT lThumb1
              {
                OFFSET 1.2192 -0.487915 3.41376
                CHANNELS 3 Zrotation Xrotation Yrotation
                JOINT lThumb2
                {
                  OFFSET 3.37035 -0.52449 3.41376
                  CHANNELS 3 Zrotation Xrotation Yrotation
                  End Site
                  {
                    OFFSET 1.78271 -1.18214 1.43049
                  }
                }
              }
              JOINT lIndex1
              {
                OFFSET 7.75947 0.938293 5.60832
                CHANNELS 3 Zrotation Xrotation Yrotation
                JOINT lIndex2
                {
                  OFFSET 2.54057 -0.884171 1.56538
                  CHANNELS 3 Zrotation Xrotation Yrotation
                  End Site
                  {
                    OFFSET 1.62519 -0.234802 1.16502
                  }
                }
              }
              JOINT lMid1
              {
                OFFSET 8.24714 1.18213 3.41376
                CHANNELS 3 Zrotation Xrotation Yrotation
                JOINT lMid2
                {
                  OFFSET 3.10165 -0.590103 1.0647
                  CHANNELS 3 Zrotation Xrotation Yrotation
                  End Site
                  {
                    OFFSET 2.48547 -0.328903 0.83742
                  }
                }
              }
              JOINT lRing1
              {
                OFFSET 8.82822 0.546677 1.51678
                CHANNELS 3 Zrotation Xrotation Yrotation
                JOINT lRing2
                {
                  OFFSET 2.60934 -0.819778 -0.0198488
                  CHANNELS 3 Zrotation Xrotation Yrotation
                  End Site
                  {
                    OFFSET 2.33842 -0.294052 0.168128
                  }
                }
              }
              JOINT lPinky1
              {
                OFFSET 8.27202 -0.0477905 -0.4584
                CHANNELS 3 Zrotation Xrotation Yrotation
                JOINT lPinky2
                {
                  OFFSET 1.82734 -0.647385 -0.700984
                  CHANNELS 3 Zrotation Xrotation Yrotation
                  End Site
                  {
                    OFFSET 1.69225 -0.51767 -0.607171
                  }
                }
              }
            }
          }
        }
      }
    }
  }
  JOINT rButtock
  {
    OFFSET -8.77824 4.35084 1.2192
    CHANNELS 3 Zrotation Xrotation Yrotation
    JOINT rThigh
    {
      OFFSET 0 -1.70687 -2.19456
      CHANNELS 3 Zrotation Xrotation Yrotation
      JOINT rShin
      {
        OFFSET 0 -36.8199 0.73152
        CHANNELS 3 Zrotation Xrotation Yrotation
        JOINT rFoot
        {
          OFFSET 0.73152 -45.1104 -5.12064
          CHANNELS 3 Zrotation Xrotation Yrotation
          End Site
          {
            OFFSET -1.1221 -3.69964 12.103
          }
        }
      }
    }
  }
  JOINT lButtock
  {
    OFFSET 8.77824 4.35084 1.2192
    CHANNELS 3 Zrotation Xrotation Yrotation
    JOINT lThigh
    {
      OFFSET 0 -1.70687 -2.19456
      CHANNELS 3 Zrotation Xrotation Yrotation
      JOINT lShin
      {
        OFFSET 0 -36.8199 0.73152
        CHANNELS 3 Zrotation Xrotation Yrotation
        JOINT lFoot
        {
          OFFSET -0.73152 -45.1104 -5.12064
          CHANNELS 3 Zrotation Xrotation Yrotation
          End Site
          {
            OFFSET 1.1221 -3.69964 12.103
          }
        }
      }
    }
  }
}
MOTION
Frames:	8
Frame Time:	0.00833333
21.7424 80.6872 -54.2219 6.988052 -6.602001 12.433979 2.529119 -4.73606 0.314041 -1.706972 -0.31897 4.843987 -1.299327 28.885955 -162.093117 20.493583 28.899034 139.72306 -0.002255 -0.0 0.000727 -0.002255 -0.0 0.000727 -13.017109 41.249755 14.800182 72.546075 -7.926017 57.282803 100.479079 21.392101 120.575979 -129.776892 58.696106 106.062401 -5.132005 4.978812 1.006191 -152.179031 -60.652185 115.824186 -100.823283 37.732654 85.161747 -66.764836 53.472155 46.204881 -160.096653 -4.901806 142.967494 -162.163489 -1.469316 142.586051 -145.121949 1.080959 -179.467135 -151.921684 -28.052452 -174.712621 1.136865 3.040068 1.044457 -127.375372 -31.020251 -125.723883 159.2191 -48.028291 -170.416584 42.292461 28.355746 30.903734 -1.627166 -30.014433 130.980072 -178.377623 -11.876868 -143.418437 0.442338 0.434976 -0.069342 76.334797 25.730132 -69.932226 108.428012 34.161354 -91.74304 173.807927 -27.560344 -115.230951 161.518772 -9.304179 -143.625772 -92.053983 -78.192319 -63.074245 0.020509 -1.726185 0.541597 -8.589636 19.540213 -2.738939 26.563664 -38.860879 25.606201 19.571856 -37.734554 21.277163 -179.993189 75.749624 -0.00525 166.194213 22.152797 -180.0 14.107031 -71.924323 82.688437 88.907151 74.916361 -0.24026 179.998937 75.749624 0.000875 168.535614 56.936625 35.780808 23.389379 28.73527 22.509077 -26.793578 2.314813 -55.133544
22.0243 80.7914 -53.7422 5.300904 -7.320006 12.749915 3.031081 -6.270979 48.396959 0.506877 0.902962 -43.600457 -11.054072 19.722526 -79.223617 24.707401 -3.353082 64.122253 -0.001823 0.0 -0.003394 0.004018 -0.0 -0.001444 -158.467738 -30.055426 166.920408 -54.812279 -22.372752 -39.782221 -109.021474 16.509493 -139.223362 14.395553 -61.129218 2.378839 -177.936268 -15.505828 89.546984 0.526673 -57.995403 4.821988 -152.105728 -18.556745 121.367007 -134.11438 32.25844 108.342355 68.984996 -80.153659 40.580377 17.383696 -40.949344 -0.110239 -70.380251 -72.131332 -87.279232 -143.296158 62.52595 162.851196 -13.277282 -25.41061 -12.631872 -23.90986 -41.345021 -25.136752 149.905127 22.421625 -154.974945 -125.904957 7.081756 -137.35137 -150.685518 -13.785003 -33.109997 169.627042 23.552081 -139.515948 94.791221 37.827162 -54.283729 133.229127 -20.032943 -77.100248 138.495741 4.896877 -114.864473 169.426411 -26.650547 -118.301891 39.289533 53.366032 -32.877736 147.949033 31.549 -134.432892 145.10828 3.758025 -179.689905 -2.36701 -43.828626 17.887996 -13.103388 44.816854 -10.839229 130.86987 -26.901628 128.192895 4.6e-05 -0.000759 -6e-05 -19.803939 -50.9196 155.113911 -9.913347 -60.305307 -155.432035 50.605121 -70.957912 -38.526853 179.999696 75.749533 -0.0 170.877468 55.845754 152.593593 18.486502 -33.772938 -79.587732 113.176885 -72.386301 18.506634
22.2549 80.8973 -53.276 3.819982 -8.174009 13.243019 4.441083 -7.282821 60.547365 1.449218 1.141165 -55.84712 8.733281 15.518891 75.911823 -24.77335 13.332914 -91.465903 -7.6e-05 0.0 -0.001493 -0.000224 0.0 -0.003448 -50.897556 -86.504851 -72.588463 162.204997 42.981074 -113.36154 174.815126 85.7229 79.894951 -174.4253 -0.692313 142.444928 -12.304797 11.515305 3.094609 -4.695408 5.483998 11.069749 -46.207315 39.654513 36.316979 4.113638 3.971738 -1.899068 -0.057943 0.167906 0.031234 -17.957297 42.290366 14.409792 -74.389311 -72.132063 -91.484391 14.731995 0.855778 -4.512914 -1.179003 -2.985156 -1.092264 2.819259 0.769931 0.247559 14.147559 43.061748 -15.995925 101.184402 -21.078362 -142.050337 90.721605 21.281928 106.749629 -40.929589 -70.722636 -25.878722 89.136135 38.426278 -50.299052 88.549445 -4.630277 -63.795399 140.167374 2.326458 -115.876591 -45.080872 -55.083731 -1.688304 -2.099249 -6.305607 1.080826 -2.807902 1.180006 -0.134816 0.059719 -3.429833 1.079446 -11.316825 -12.227399 1.544797 145.543308 13.244856 142.148844 -10.22026 22.757915 -3.436455 -179.997041 75.749358 0.0 166.830482 25.39038 5.489867 39.692183 59.818434 111.776382 84.735472 15.165139 -178.659299 -179.996769 75.750382 -0.003333 173.677626 56.365106 -172.419888 -6.955679 -35.262393 -138.7764 -65.088739 20.945322 -24.880856
22.453799999999998 80.9414 -52.834199999999996 2.656942 -9.203098 13.897889 7.420736 -6.534028 1.158007 -2.274193 1.011159 3.929227 -11.467734 22.296862 -91.760312 27.414662 1.767272 73.920693 -0.00138 0.0 -0.003403 -0.00188 0.0 -0.00022 -6.251709 26.219062 7.4686 56.92501 3.059785 46.932653 41.623644 -51.268651 104.440763 -16.203233 18.329499 0.994159 -176.597552 -14.21347 89.690853 -32.070568 -30.196529 1.034297 -152.103753 -18.556518 121.368915 -156.956927 -6.757629 119.292994 -161.153041 -8.160561 143.465729 -18.277293 42.119184 14.875379 -145.119226 0.185783 -179.186106 -156.23598 63.997762 172.282686 -149.903364 28.480727 -145.833732 -23.010148 -37.980628 -24.172096 136.302811 48.980224 -140.374496 -82.287684 -17.912734 -106.548944 -12.863883 0.66136 -98.445548 12.324298 18.827424 -0.191928 -2.012367 -1.996689 0.275298 12.317651 12.746816 -9.390161 -73.419798 -73.571379 -26.562652 166.561008 -31.593565 -113.616977 -0.541267 -1.589936 0.294737 170.280698 -26.250809 -144.304061 145.121657 1.974618 179.750498 76.257471 -77.989653 97.630376 136.277575 -10.956628 133.618933 93.808151 -50.144588 93.371179 -179.998451 75.748876 -0.001598 166.241442 23.922999 155.431283 26.502429 -64.7207 53.762503 -151.255556 59.868975 -122.226174 0.002309 -0.001121 0.002309 -3.461076 -18.782228 169.361265 16.283839 -41.679282 49.832913 88.73228 -9.920532 161.593275
22.714599999999997 80.9174 -52.4123 2.073077 -10.635097 14.332011 5.665183 -8.705929 74.668331 3.007301 0.634658 -69.577601 3.721821 11.172706 40.734939 -21.613897 -2.49531 -60.387035 0.000301 -0.0 -0.000453 0.000301 -0.0 -0.000453 -9.652041 34.836136 11.199302 -115.247041 1.370011 123.85916 -43.877448 -49.164638 -141.741442 176.679292 -30.288794 144.109177 -173.976265 -11.643389 89.882103 114.459872 -63.637941 85.29949 -150.885715 -16.291721 120.977925 -162.875755 -18.697162 119.564136 -23.864491 42.891371 18.664989 144.568061 -74.646087 112.651404 0.000197 -0.018548 -0.00559 11.527861 -40.161193 -4.886488 27.143781 80.263137 10.016834 14.382574 41.891231 7.261262 -3.191971 -25.838962 5.073421 -83.425109 14.83321 33.340558 -70.258803 37.431028 -58.775784 41.361658 58.321388 -22.77304 172.745257 -10.42403 -89.928805 138.112983 10.375266 -69.717943 179.420095 -58.426604 -117.045551 -87.647056 -68.160602 -31.983543 12.843398 28.996982 -9.150025 17.875955 42.277335 -14.442979 145.120937 0.267329 179.213408 148.110155 -43.127316 170.573301 -12.986585 44.344553 -10.762538 160.726894 55.49019 149.492817 0.000649 0.00126 -0.000834 -17.744162 -46.519489 -13.315901 24.679907 44.772512 -44.497472 62.049895 -35.078099 -11.630098 179.972324 75.750274 0.022771 175.235696 57.13207 -164.240813 -1.517026 -33.178315 134.724847 -122.030717 -53.429703 -27.411771
23.1884 80.8661 -51.92250000000001 2.299971 -11.56095 14.227992 5.985698 -8.945413 73.36027 3.25969 0.567009 -67.88246 -8.193498 27.888006 -131.019872 27.803293 18.458149 106.595759 -0.002627 -0.0 0.002644 -0.00214 0.0 -7.7e-05 -3.908202 18.449198 4.804179 33.86244 25.070671 49.599857 -4.485762 -83.979735 59.883571 -8.492129 -4.772193 -3.211026 -94.791708 37.828587 54.283742 -140.17722 -23.244379 78.266051 -127.61477 18.961773 107.327415 -168.880637 -22.456851 117.659704 -36.038315 51.722344 29.833066 -88.570219 63.980662 80.472636 -145.099327 -1.521242 -178.650442 -153.891158 -13.682787 -177.326578 -139.225444 -4.397418 -136.391192 -25.39815 -40.314646 -27.026879 158.468748 -30.05563 -166.919371 64.228116 -4.340478 15.0931 5.138757 16.242878 128.18841 -175.880544 -18.724352 -143.298077 -51.059936 -41.204087 -12.856186 123.24971 22.295014 -97.702716 152.104252 -18.556284 -121.369128 -179.785141 -47.184197 -113.517518 89.835485 60.70253 -81.26284 7.215809 26.184075 -6.252255 132.48492 54.104056 -155.535891 159.191737 0.15543 -178.618689 25.536849 -38.087802 24.598201 154.14432 38.355884 148.200407 -0.003406 0.000993 -0.001703 -16.034162 -46.397537 -88.689161 -42.146244 38.133942 164.662851 -154.620602 -5.382681 150.279163 -0.001522 0.000183 -0.000761 -2.075384 -16.345215 -41.216316 -26.318624 30.976461 155.582647 -142.102844 -51.230361 130.366114
23.6213 80.7604 -51.3571 2.693989 -12.643056 13.915121 6.420264 -10.85101 117.598636 4.507932 -2.691195 -111.532319 -12.407993 21.499658 -86.194346 26.432806 -0.733885 66.532448 0.004043 -0.0 -0.002401 -0.001678 0.0 -0.00264 4.102445 -55.789226 -11.182794 59.632086 5.783662 -19.179267 -81.630978 7.003197 66.507306 68.980006 -79.732113 51.536697 -68.482862 37.954162 35.659048 23.539589 -24.455755 17.626821 12.215861 -21.784927 -5.119633 -153.890885 -6.154805 110.668777 3.775751 -11.559389 -1.813148 -163.364953 -4.918656 143.363904 -145.123344 1.121327 -179.480682 -151.47106 -30.394692 -174.194553 -123.038372 -31.102405 -120.852682 1.989795 -2.858847 -2.521253 -0.162945 -0.990114 0.218027 -175.186201 85.714909 90.028508 -175.141056 58.72173 -54.628689 179.956574 -5.171497 -143.320622 176.92847 -14.53218 -89.658194 -1.271373 -57.856677 -5.758806 -45.281643 -63.865741 -4.306766 82.277928 51.237443 -68.857406 39.290143 53.366091 -32.877239 13.280724 36.40371 -10.77212 0.000349 -0.018244 0.007553 154.231629 12.76548 -170.101799 7.145468 -15.707233 6.727743 146.619615 10.358096 143.334801 -0.002996 -0.001455 -0.001498 -17.671759 -46.474031 156.278961 -23.749527 -42.112176 -175.3414 -14.8354 -5.381517 -65.944245 0.006164 -0.001361 0.003082 -3.760333 -17.894522 136.328926 35.700845 -21.186123 123.425027 23.850413 9.101029 108.875158
23.9849 80.6411 -50.8304 2.87997 -13.764959 13.696975 8.733551 -11.989504 -180.0 1.982878 -6.527613 -173.036526 8.708212 19.882126 99.56308 -21.604569 24.135483 -118.322283 -0.003428 0.0 -0.00033 0.002383 0.0 0.002586 -143.620397 38.233546 148.080997 138.072259 -5.988803 160.972559 -128.893024 28.314655 56.274144 172.846442 -40.865614 143.328201 93.028064 -51.084839 40.501384 -138.530603 17.765009 100.234969 19.568636 -35.040286 -5.986418 176.77109 -44.364542 103.256032 23.904451 -61.333699 1.401559 -83.376027 64.24034 75.164537 -69.297349 72.94779 87.016157 5.113538 27.276726 -0.734771 -157.327447 57.246569 -150.51286 -24.5954 -39.193283 -25.138561 85.537614 68.181802 -88.688798 -70.219898 -3.829778 -79.069517 -174.960858 12.086369 -48.230032 178.938853 -1.720424 -143.179677 176.598478 -14.213002 -89.691696 11.626931 -49.236094 -1.449938 90.226401 41.073511 -75.796593 119.477954 43.045643 -91.017537 148.31847 24.247921 -135.132528 85.843928 63.894079 -77.802822 69.299245 72.945241 -87.018004 158.792577 -27.19572 -179.911195 -44.755257 86.376869 5.388129 -0.345819 -2.642809 1.899284 -0.009093 -1.9e-05 -0.009093 -16.222501 -46.043672 -180.0 -37.763442 -41.822784 26.319823 -43.306305 -77.040172 48.089066 -179.997482 75.751656 -0.002598 173.602748 59.804714 7.391155 -0.461328 43.392862 152.784934 132.181531 38.441707 141.52615
